<svg xmlns="http://www.w3.org/2000/svg" xmlns:xlink="http://www.w3.org/1999/xlink" version="1.1" x="0px" y="0px" viewBox="0 0 64 80" style="enable-background:new 0 0 64 64;" xml:space="preserve"><g><rect x="45.83" y="26.489" transform="matrix(0.5011 -0.8654 0.8654 0.5011 1.6777 57.8871)" width="10.426" height="2"/><rect x="45.539" y="34.001" transform="matrix(0.501 -0.8655 0.8655 0.501 -6.9907 57.8787)" width="2.308" height="2"/><path d="M61,15H51v-1c0-0.551,0.448-1,1-1h6c1.654,0,3-1.346,3-3V8.816C62.161,8.402,63,7.302,63,6c0-1.654-1.346-3-3-3   s-3,1.346-3,3c0,1.302,0.839,2.402,2,2.816V10c0,0.551-0.448,1-1,1h-6c-1.654,0-3,1.346-3,3v1h-2V6.816C48.161,6.402,49,5.302,49,4   c0-1.654-1.346-3-3-3s-3,1.346-3,3c0,1.302,0.839,2.402,2,2.816V15h-2v-2c0-1.654-1.346-3-3-3H21V8.284l-1.617-0.551   c-0.046-0.117-0.095-0.233-0.146-0.35l0.755-1.534l-3.84-3.841l-1.535,0.755c-0.116-0.052-0.232-0.101-0.35-0.146L13.716,1H8.284   L7.733,2.617C7.616,2.663,7.5,2.712,7.384,2.764L5.849,2.008L2.009,5.85l0.755,1.534C2.712,7.5,2.663,7.617,2.617,7.733L1,8.284   v5.432l1.617,0.551c0.046,0.117,0.095,0.233,0.146,0.35L2.009,16.15l3.84,3.841l1.535-0.755c0.116,0.052,0.232,0.101,0.35,0.146   L8.284,21h5.432l0.551-1.617c0.117-0.046,0.233-0.095,0.35-0.146l1.535,0.755l3.84-3.841l-0.755-1.534   c0.052-0.116,0.101-0.233,0.146-0.35L21,13.716V12h19c0.552,0,1,0.449,1,1v2H31c-1.103,0-2,0.897-2,2v2c0,1.103,0.897,2,2,2h0.424   l1.158,2H4c-1.654,0-3,1.346-3,3v34c0,1.654,1.346,3,3,3h56c1.654,0,3-1.346,3-3V26c0-1.654-1.346-3-3-3h-0.582l1.158-2H61   c1.103,0,2-0.897,2-2v-2C63,15.897,62.103,15,61,15z M60,5c0.552,0,1,0.449,1,1s-0.448,1-1,1s-1-0.449-1-1S59.448,5,60,5z M46,3   c0.552,0,1,0.449,1,1s-0.448,1-1,1s-1-0.449-1-1S45.448,3,46,3z M19,12.284l-1.19,0.405l-0.155,0.476   c-0.108,0.334-0.25,0.672-0.419,1.006l-0.228,0.446l0.558,1.133l-1.816,1.816l-1.133-0.558l-0.447,0.228   c-0.332,0.169-0.67,0.311-1.004,0.42l-0.476,0.155L12.284,19H9.716l-0.405-1.19l-0.476-0.155c-0.334-0.109-0.672-0.25-1.004-0.42   l-0.447-0.228l-1.133,0.558l-1.816-1.816l0.558-1.133L4.765,14.17c-0.169-0.333-0.311-0.672-0.419-1.006L4.19,12.689L3,12.284   V9.716l1.19-0.405l0.155-0.476c0.108-0.334,0.25-0.672,0.419-1.006l0.228-0.446L4.435,6.251l1.816-1.816l1.133,0.558l0.447-0.228   c0.332-0.169,0.67-0.311,1.004-0.42L9.311,4.19L9.716,3h2.568l0.405,1.19l0.476,0.155c0.334,0.109,0.672,0.25,1.004,0.42   l0.447,0.228l1.133-0.558l1.816,1.816l-0.558,1.133l0.228,0.446c0.169,0.333,0.311,0.672,0.419,1.006l0.155,0.476L19,9.716V12.284z    M4,25h29.739l3.474,6H3v-5C3,25.449,3.448,25,4,25z M60,61H4c-0.552,0-1-0.449-1-1V33h35.371L42,39.269V47h2.192L50,44.677v-5.409   L53.629,33H61v27C61,60.551,60.552,61,60,61z M48,40v3.323l-4,1.6V40H48z M60,25c0.552,0,1,0.449,1,1v5h-6.213l3.474-6H60z    M48.423,38h-4.847l-9.842-17h24.531L48.423,38z M31,19v-2h30l0.001,2H31z"/><path d="M11,6c-2.757,0-5,2.243-5,5s2.243,5,5,5s5-2.243,5-5S13.757,6,11,6z M11,14c-1.654,0-3-1.346-3-3s1.346-3,3-3s3,1.346,3,3   S12.654,14,11,14z"/><rect x="13" y="27" width="2" height="2"/><rect x="5" y="27" width="2" height="2"/><rect x="9" y="27" width="2" height="2"/><path d="M5,51h28V35H5V51z M7,37h24v12H7V37z"/><path d="M5,59h8v-6H5V59z M7,55h4v2H7V55z"/><path d="M15,59h8v-6h-8V59z M17,55h4v2h-4V55z"/><path d="M25,59h8v-6h-8V59z M27,55h4v2h-4V55z"/><rect x="35" y="49" width="2" height="2"/><rect x="39" y="49" width="20" height="2"/><rect x="35" y="53" width="24" height="2"/><rect x="35" y="57" width="24" height="2"/></g><text x="0" y="79" fill="#000000" font-size="5px" font-weight="bold" font-family="'Helvetica Neue', Helvetica, Arial-Unicode, Arial, Sans-serif">Created by Eucalyp</text><text x="0" y="84" fill="#000000" font-size="5px" font-weight="bold" font-family="'Helvetica Neue', Helvetica, Arial-Unicode, Arial, Sans-serif">from the Noun Project</text></svg>